<svg viewBox="0 0 1614 376" fill="none" xmlns="http://www.w3.org/2000/svg" class="h-7">
  <rect x="60" y="60" width="256" height="256" rx="32" fill="#0D4A36"></rect>
  <circle cx="253" cy="153" r="30" fill="#86EFAC"></circle>
  <circle cx="188" cy="153" r="30" fill="#86EFAC"></circle>
  <circle cx="123" cy="153" r="30" fill="#86EFAC"></circle>
  <circle cx="123" cy="223" r="30" fill="#86EFAC"></circle>
  <rect x="283" y="193" width="56.5555" height="125" rx="28.2778" transform="rotate(90 283 193)" fill="#86EFAC"></rect>
  <path d="M376 272V104H409.6V171.68H479.2V104H512.8V272H479.2V201.92H409.6V272H376ZM547.101 322.16C543.901 322.16 540.301 322 536.301 321.68C532.301 321.36 528.701 320.72 525.501 319.76L530.301 288.8C534.781 289.92 539.661 290.48 544.941 290.48C551.181 290.48 556.301 288.64 560.301 284.96C564.301 281.44 567.181 276.96 568.941 271.52L570.621 266.24L521.181 147.2H560.301L584.541 218.48C586.781 224.88 588.541 231.52 589.821 238.4C591.101 231.52 592.861 224.88 595.101 218.48L619.341 147.2H657.741L602.541 279.92C597.261 292.56 590.381 302.72 581.901 310.4C573.421 318.24 561.821 322.16 547.101 322.16ZM663.756 320V147.2H695.676V167.36C699.036 160.48 703.756 154.96 709.836 150.8C716.076 146.64 724.636 144.56 735.516 144.56C744.156 144.56 752.156 146.32 759.516 149.84C767.036 153.2 773.596 157.92 779.196 164C784.796 169.92 789.196 176.88 792.396 184.88C795.596 192.72 797.196 201.12 797.196 210.08C797.196 222.08 794.396 233.04 788.796 242.96C783.356 252.72 775.996 260.56 766.716 266.48C757.436 272.24 747.036 275.12 735.516 275.12C724.796 275.12 716.396 273.2 710.316 269.36C704.236 265.36 699.516 260.08 696.156 253.52V320H663.756ZM730.236 245.84C737.116 245.84 743.116 244.16 748.236 240.8C753.516 237.44 757.596 233.04 760.476 227.6C763.356 222 764.796 216.08 764.796 209.84C764.796 203.28 763.356 197.28 760.476 191.84C757.596 186.4 753.516 182.08 748.236 178.88C743.116 175.52 737.116 173.84 730.236 173.84C723.196 173.84 717.036 175.52 711.756 178.88C706.476 182.24 702.396 186.64 699.516 192.08C696.636 197.52 695.196 203.52 695.196 210.08C695.196 216.48 696.636 222.4 699.516 227.84C702.396 233.28 706.476 237.68 711.756 241.04C717.036 244.24 723.196 245.84 730.236 245.84ZM870.235 275.12C857.435 275.12 846.155 272.16 836.395 266.24C826.635 260.32 819.035 252.48 813.595 242.72C808.315 232.8 805.675 221.84 805.675 209.84C805.675 197.84 808.475 186.88 814.075 176.96C819.675 166.88 827.275 158.88 836.875 152.96C846.635 147.04 857.755 144.08 870.235 144.08C882.715 144.08 893.675 147.04 903.115 152.96C912.715 158.88 920.155 166.88 925.435 176.96C930.875 186.88 933.595 197.84 933.595 209.84C933.595 211.6 933.515 213.44 933.355 215.36C933.195 217.28 932.955 219.28 932.635 221.36H839.275C841.035 228.72 844.555 234.72 849.835 239.36C855.275 244 862.075 246.32 870.235 246.32C877.275 246.32 883.355 244.72 888.475 241.52C893.755 238.32 897.835 234.32 900.715 229.52L925.915 248.48C920.955 256.32 913.515 262.72 903.595 267.68C893.675 272.64 882.555 275.12 870.235 275.12ZM869.755 171.92C862.075 171.92 855.515 174.24 850.075 178.88C844.635 183.52 841.035 189.6 839.275 197.12H900.955C899.195 190.24 895.515 184.32 889.915 179.36C884.475 174.4 877.755 171.92 869.755 171.92ZM947.819 272V147.2H979.259V170.96C981.339 162 985.579 155.2 991.979 150.56C998.379 145.76 1007.02 143.68 1017.9 144.32V174.8H1013.34C1004.06 174.8 996.219 177.76 989.819 183.68C983.419 189.6 980.219 197.76 980.219 208.16V272H947.819ZM1078.77 272C1066.45 272 1057.01 268.96 1050.45 262.88C1043.89 256.8 1040.61 246.96 1040.61 233.36V174.8H1023.09V147.2H1040.61V122L1073.01 118.64V147.2H1099.41V174.8H1073.01V231.68C1073.01 239.36 1076.37 243.2 1083.09 243.2H1096.53V272H1078.77ZM1166.72 275.12C1153.92 275.12 1142.64 272.16 1132.88 266.24C1123.12 260.32 1115.52 252.48 1110.08 242.72C1104.8 232.8 1102.16 221.84 1102.16 209.84C1102.16 197.84 1104.96 186.88 1110.56 176.96C1116.16 166.88 1123.76 158.88 1133.36 152.96C1143.12 147.04 1154.24 144.08 1166.72 144.08C1179.2 144.08 1190.16 147.04 1199.6 152.96C1209.2 158.88 1216.64 166.88 1221.92 176.96C1227.36 186.88 1230.08 197.84 1230.08 209.84C1230.08 211.6 1230 213.44 1229.84 215.36C1229.68 217.28 1229.44 219.28 1229.12 221.36H1135.76C1137.52 228.72 1141.04 234.72 1146.32 239.36C1151.76 244 1158.56 246.32 1166.72 246.32C1173.76 246.32 1179.84 244.72 1184.96 241.52C1190.24 238.32 1194.32 234.32 1197.2 229.52L1222.4 248.48C1217.44 256.32 1210 262.72 1200.08 267.68C1190.16 272.64 1179.04 275.12 1166.72 275.12ZM1166.24 171.92C1158.56 171.92 1152 174.24 1146.56 178.88C1141.12 183.52 1137.52 189.6 1135.76 197.12H1197.44C1195.68 190.24 1192 184.32 1186.4 179.36C1180.96 174.4 1174.24 171.92 1166.24 171.92ZM1244.3 272V147.2H1275.74V170.96C1277.82 162 1282.06 155.2 1288.46 150.56C1294.86 145.76 1303.5 143.68 1314.38 144.32V174.8H1309.82C1300.54 174.8 1292.7 177.76 1286.3 183.68C1279.9 189.6 1276.7 197.76 1276.7 208.16V272H1244.3ZM1364.84 275.12C1343.88 275.12 1326.6 267.84 1313 253.28L1334.84 233.36C1343.96 243.6 1353.72 248.72 1364.12 248.72C1369.72 248.72 1373.96 247.52 1376.84 245.12C1379.88 242.56 1381.4 239.44 1381.4 235.76C1381.4 233.52 1380.84 231.6 1379.72 230C1378.76 228.4 1376.6 226.88 1373.24 225.44C1370.04 224 1365.16 222.56 1358.6 221.12C1347.4 218.4 1339.08 215.04 1333.64 211.04C1328.2 207.04 1324.6 202.56 1322.84 197.6C1321.08 192.64 1320.2 187.52 1320.2 182.24C1320.2 171.36 1324.28 162.32 1332.44 155.12C1340.76 147.76 1352.2 144.08 1366.76 144.08C1376.84 144.08 1385.48 145.6 1392.68 148.64C1399.88 151.68 1406.68 157.36 1413.08 165.68L1389.56 183.68C1386.52 178.88 1383.08 175.44 1379.24 173.36C1375.56 171.28 1371.64 170.24 1367.48 170.24C1363 170.24 1359.24 171.12 1356.2 172.88C1353.32 174.64 1351.88 177.44 1351.88 181.28C1351.88 183.36 1352.84 185.44 1354.76 187.52C1356.68 189.44 1361.32 191.36 1368.68 193.28C1380.84 196.32 1390.12 199.92 1396.52 204.08C1402.92 208.08 1407.32 212.64 1409.72 217.76C1412.12 222.88 1413.32 228.56 1413.32 234.8C1413.32 242.48 1411.16 249.36 1406.84 255.44C1402.68 261.52 1396.92 266.32 1389.56 269.84C1382.36 273.36 1374.12 275.12 1364.84 275.12ZM1485.7 275.12C1472.9 275.12 1461.62 272.16 1451.86 266.24C1442.1 260.32 1434.5 252.48 1429.06 242.72C1423.78 232.8 1421.14 221.84 1421.14 209.84C1421.14 197.84 1423.94 186.88 1429.54 176.96C1435.14 166.88 1442.74 158.88 1452.34 152.96C1462.1 147.04 1473.22 144.08 1485.7 144.08C1498.18 144.08 1509.14 147.04 1518.58 152.96C1528.18 158.88 1535.62 166.88 1540.9 176.96C1546.34 186.88 1549.06 197.84 1549.06 209.84C1549.06 211.6 1548.98 213.44 1548.82 215.36C1548.66 217.28 1548.42 219.28 1548.1 221.36H1454.74C1456.5 228.72 1460.02 234.72 1465.3 239.36C1470.74 244 1477.54 246.32 1485.7 246.32C1492.74 246.32 1498.82 244.72 1503.94 241.52C1509.22 238.32 1513.3 234.32 1516.18 229.52L1541.38 248.48C1536.42 256.32 1528.98 262.72 1519.06 267.68C1509.14 272.64 1498.02 275.12 1485.7 275.12ZM1485.22 171.92C1477.54 171.92 1470.98 174.24 1465.54 178.88C1460.1 183.52 1456.5 189.6 1454.74 197.12H1516.42C1514.66 190.24 1510.98 184.32 1505.38 179.36C1499.94 174.4 1493.22 171.92 1485.22 171.92Z" fill="#fafafa"></path>
</svg>
