<svg width="1494" height="263" viewBox="0 0 1494 263" fill="none" xmlns="http://www.w3.org/2000/svg">
<rect width="256" height="256" rx="32" fill="#0D4A36"/>
<circle cx="193" cy="93" r="30" fill="#86EFAC"/>
<circle cx="128" cy="93" r="30" fill="#86EFAC"/>
<circle cx="63" cy="93" r="30" fill="#86EFAC"/>
<circle cx="63" cy="163" r="30" fill="#86EFAC"/>
<rect x="223" y="133" width="56.5555" height="125" rx="28.2778" transform="rotate(90 223 133)" fill="#86EFAC"/>
<path d="M316 212V44H349.6V111.68H419.2V44H452.8V212H419.2V141.92H349.6V212H316ZM487.101 262.16C483.901 262.16 480.301 262 476.301 261.68C472.301 261.36 468.701 260.72 465.501 259.76L470.301 228.8C474.781 229.92 479.661 230.48 484.941 230.48C491.181 230.48 496.301 228.64 500.301 224.96C504.301 221.44 507.181 216.96 508.941 211.52L510.621 206.24L461.181 87.2H500.301L524.541 158.48C526.781 164.88 528.541 171.52 529.821 178.4C531.101 171.52 532.861 164.88 535.101 158.48L559.341 87.2H597.741L542.541 219.92C537.261 232.56 530.381 242.72 521.901 250.4C513.421 258.24 501.821 262.16 487.101 262.16ZM603.756 260V87.2H635.676V107.36C639.036 100.48 643.756 94.96 649.836 90.8C656.076 86.64 664.636 84.56 675.516 84.56C684.156 84.56 692.156 86.32 699.516 89.84C707.036 93.2 713.596 97.92 719.196 104C724.796 109.92 729.196 116.88 732.396 124.88C735.596 132.72 737.196 141.12 737.196 150.08C737.196 162.08 734.396 173.04 728.796 182.96C723.356 192.72 715.996 200.56 706.716 206.48C697.436 212.24 687.036 215.12 675.516 215.12C664.796 215.12 656.396 213.2 650.316 209.36C644.236 205.36 639.516 200.08 636.156 193.52V260H603.756ZM670.236 185.84C677.116 185.84 683.116 184.16 688.236 180.8C693.516 177.44 697.596 173.04 700.476 167.6C703.356 162 704.796 156.08 704.796 149.84C704.796 143.28 703.356 137.28 700.476 131.84C697.596 126.4 693.516 122.08 688.236 118.88C683.116 115.52 677.116 113.84 670.236 113.84C663.196 113.84 657.036 115.52 651.756 118.88C646.476 122.24 642.396 126.64 639.516 132.08C636.636 137.52 635.196 143.52 635.196 150.08C635.196 156.48 636.636 162.4 639.516 167.84C642.396 173.28 646.476 177.68 651.756 181.04C657.036 184.24 663.196 185.84 670.236 185.84ZM810.235 215.12C797.435 215.12 786.155 212.16 776.395 206.24C766.635 200.32 759.035 192.48 753.595 182.72C748.315 172.8 745.675 161.84 745.675 149.84C745.675 137.84 748.475 126.88 754.075 116.96C759.675 106.88 767.275 98.88 776.875 92.96C786.635 87.04 797.755 84.08 810.235 84.08C822.715 84.08 833.675 87.04 843.115 92.96C852.715 98.88 860.155 106.88 865.435 116.96C870.875 126.88 873.595 137.84 873.595 149.84C873.595 151.6 873.515 153.44 873.355 155.36C873.195 157.28 872.955 159.28 872.635 161.36H779.275C781.035 168.72 784.555 174.72 789.835 179.36C795.275 184 802.075 186.32 810.235 186.32C817.275 186.32 823.355 184.72 828.475 181.52C833.755 178.32 837.835 174.32 840.715 169.52L865.915 188.48C860.955 196.32 853.515 202.72 843.595 207.68C833.675 212.64 822.555 215.12 810.235 215.12ZM809.755 111.92C802.075 111.92 795.515 114.24 790.075 118.88C784.635 123.52 781.035 129.6 779.275 137.12H840.955C839.195 130.24 835.515 124.32 829.915 119.36C824.475 114.4 817.755 111.92 809.755 111.92ZM887.819 212V87.2H919.259V110.96C921.339 102 925.579 95.2 931.979 90.56C938.379 85.76 947.019 83.68 957.899 84.32V114.8H953.339C944.059 114.8 936.219 117.76 929.819 123.68C923.419 129.6 920.219 137.76 920.219 148.16V212H887.819ZM1018.77 212C1006.45 212 997.011 208.96 990.451 202.88C983.891 196.8 980.611 186.96 980.611 173.36V114.8H963.091V87.2H980.611V62L1013.01 58.64V87.2H1039.41V114.8H1013.01V171.68C1013.01 179.36 1016.37 183.2 1023.09 183.2H1036.53V212H1018.77ZM1106.72 215.12C1093.92 215.12 1082.64 212.16 1072.88 206.24C1063.12 200.32 1055.52 192.48 1050.08 182.72C1044.8 172.8 1042.16 161.84 1042.16 149.84C1042.16 137.84 1044.96 126.88 1050.56 116.96C1056.16 106.88 1063.76 98.88 1073.36 92.96C1083.12 87.04 1094.24 84.08 1106.72 84.08C1119.2 84.08 1130.16 87.04 1139.6 92.96C1149.2 98.88 1156.64 106.88 1161.92 116.96C1167.36 126.88 1170.08 137.84 1170.08 149.84C1170.08 151.6 1170 153.44 1169.84 155.36C1169.68 157.28 1169.44 159.28 1169.12 161.36H1075.76C1077.52 168.72 1081.04 174.72 1086.32 179.36C1091.76 184 1098.56 186.32 1106.72 186.32C1113.76 186.32 1119.84 184.72 1124.96 181.52C1130.24 178.32 1134.32 174.32 1137.2 169.52L1162.4 188.48C1157.44 196.32 1150 202.72 1140.08 207.68C1130.16 212.64 1119.04 215.12 1106.72 215.12ZM1106.24 111.92C1098.56 111.92 1092 114.24 1086.56 118.88C1081.12 123.52 1077.52 129.6 1075.76 137.12H1137.44C1135.68 130.24 1132 124.32 1126.4 119.36C1120.96 114.4 1114.24 111.92 1106.24 111.92ZM1184.3 212V87.2H1215.74V110.96C1217.82 102 1222.06 95.2 1228.46 90.56C1234.86 85.76 1243.5 83.68 1254.38 84.32V114.8H1249.82C1240.54 114.8 1232.7 117.76 1226.3 123.68C1219.9 129.6 1216.7 137.76 1216.7 148.16V212H1184.3ZM1304.84 215.12C1283.88 215.12 1266.6 207.84 1253 193.28L1274.84 173.36C1283.96 183.6 1293.72 188.72 1304.12 188.72C1309.72 188.72 1313.96 187.52 1316.84 185.12C1319.88 182.56 1321.4 179.44 1321.4 175.76C1321.4 173.52 1320.84 171.6 1319.72 170C1318.76 168.4 1316.6 166.88 1313.24 165.44C1310.04 164 1305.16 162.56 1298.6 161.12C1287.4 158.4 1279.08 155.04 1273.64 151.04C1268.2 147.04 1264.6 142.56 1262.84 137.6C1261.08 132.64 1260.2 127.52 1260.2 122.24C1260.2 111.36 1264.28 102.32 1272.44 95.12C1280.76 87.76 1292.2 84.08 1306.76 84.08C1316.84 84.08 1325.48 85.6 1332.68 88.64C1339.88 91.68 1346.68 97.36 1353.08 105.68L1329.56 123.68C1326.52 118.88 1323.08 115.44 1319.24 113.36C1315.56 111.28 1311.64 110.24 1307.48 110.24C1303 110.24 1299.24 111.12 1296.2 112.88C1293.32 114.64 1291.88 117.44 1291.88 121.28C1291.88 123.36 1292.84 125.44 1294.76 127.52C1296.68 129.44 1301.32 131.36 1308.68 133.28C1320.84 136.32 1330.12 139.92 1336.52 144.08C1342.92 148.08 1347.32 152.64 1349.72 157.76C1352.12 162.88 1353.32 168.56 1353.32 174.8C1353.32 182.48 1351.16 189.36 1346.84 195.44C1342.68 201.52 1336.92 206.32 1329.56 209.84C1322.36 213.36 1314.12 215.12 1304.84 215.12ZM1425.7 215.12C1412.9 215.12 1401.62 212.16 1391.86 206.24C1382.1 200.32 1374.5 192.48 1369.06 182.72C1363.78 172.8 1361.14 161.84 1361.14 149.84C1361.14 137.84 1363.94 126.88 1369.54 116.96C1375.14 106.88 1382.74 98.88 1392.34 92.96C1402.1 87.04 1413.22 84.08 1425.7 84.08C1438.18 84.08 1449.14 87.04 1458.58 92.96C1468.18 98.88 1475.62 106.88 1480.9 116.96C1486.34 126.88 1489.06 137.84 1489.06 149.84C1489.06 151.6 1488.98 153.44 1488.82 155.36C1488.66 157.28 1488.42 159.28 1488.1 161.36H1394.74C1396.5 168.72 1400.02 174.72 1405.3 179.36C1410.74 184 1417.54 186.32 1425.7 186.32C1432.74 186.32 1438.82 184.72 1443.94 181.52C1449.22 178.32 1453.3 174.32 1456.18 169.52L1481.38 188.48C1476.42 196.32 1468.98 202.72 1459.06 207.68C1449.14 212.64 1438.02 215.12 1425.7 215.12ZM1425.22 111.92C1417.54 111.92 1410.98 114.24 1405.54 118.88C1400.1 123.52 1396.5 129.6 1394.74 137.12H1456.42C1454.66 130.24 1450.98 124.32 1445.38 119.36C1439.94 114.4 1433.22 111.92 1425.22 111.92Z" fill="#FEFEFE"/>
</svg>
